<?xml version="1.0" encoding="UTF-8"?>
<svg version="1.1" xmlns="http://www.w3.org/2000/svg" width="223" height="44">
<path d="M0 0 C73.59 0 147.18 0 223 0 C223 14.52 223 29.04 223 44 C149.41 44 75.82 44 0 44 C0 29.48 0 14.96 0 0 Z " fill="#050505" transform="translate(0,0)"/>
<path d="M0 0 C0.66 0.66 1.32 1.32 2 2 C2.33 1.34 2.66 0.68 3 0 C5.31 0 7.62 0 10 0 C10 0.99 10 1.98 10 3 C9.01 3.33 8.02 3.66 7 4 C6.67 7.3 6.34 10.6 6 14 C4.04233719 14.08082094 2.08373272 14.13910778 0.125 14.1875 C-0.96554688 14.22230469 -2.05609375 14.25710937 -3.1796875 14.29296875 C-4.11039062 14.19628906 -5.04109375 14.09960938 -6 14 C-8.53637054 10.19544419 -8.59473663 7.46052469 -8 3 C-5.98696203 -0.39037973 -3.76448625 -0.48262644 0 0 Z " fill="#D6D6D6" transform="translate(76,17)"/>
<path d="M0 0 C0.99 0.33 1.98 0.66 3 1 C3.33 5.62 3.66 10.24 4 15 C4.66 14.34 5.32 13.68 6 13 C9.125 12.875 9.125 12.875 12 13 C12 11.68 12 10.36 12 9 C10.02 9 8.04 9 6 9 C6 8.34 6 7.68 6 7 C11.4679803 6.63546798 11.4679803 6.63546798 13.6875 8.15625 C16.2957814 11.82026435 15.15177967 16.69957597 15 21 C10.05 21 5.1 21 0 21 C0 14.07 0 7.14 0 0 Z " fill="#B9B9B9" transform="translate(40,10)"/>
<path d="M0 0 C0.99 0.33 1.98 0.66 3 1 C3.33 2.98 3.66 4.96 4 7 C4.78375 7.103125 5.5675 7.20625 6.375 7.3125 C9 8 9 8 11 11 C11.01171875 13.2265625 11.01171875 13.2265625 10.6875 15.625 C10.58824219 16.42164062 10.48898438 17.21828125 10.38671875 18.0390625 C10 20 10 20 9 21 C6.03 21 3.06 21 0 21 C0 14.07 0 7.14 0 0 Z " fill="#D9D9D9" transform="translate(56,10)"/>
<path d="M0 0 C7.15789474 -0.35789474 7.15789474 -0.35789474 10.5 1.0625 C12.82091376 4.06034694 12.45113866 6.32644233 12 10 C11.0625 12.4375 11.0625 12.4375 9 14 C5.92091329 14.33302179 3.11443664 14.18054705 0 14 C0 9.38 0 4.76 0 0 Z " fill="#959595" transform="translate(104,17)"/>
<path d="M0 0 C3 0.25 3 0.25 5 2.25 C5.265625 4.5625 5.265625 4.5625 5.25 7.25 C5.25515625 8.136875 5.2603125 9.02375 5.265625 9.9375 C5 12.25 5 12.25 3 14.25 C0 14.5 0 14.5 -3 14.25 C-5 12.25 -5 12.25 -5.265625 9.9375 C-5.26046875 9.050625 -5.2553125 8.16375 -5.25 7.25 C-5.25515625 6.363125 -5.2603125 5.47625 -5.265625 4.5625 C-4.83803703 0.83996944 -3.62712046 0.30226004 0 0 Z " fill="#DCDCDC" transform="translate(28,16.75)"/>
<path d="M0 0 C0.02694851 1.95825873 0.04637218 3.91662226 0.0625 5.875 C0.07410156 6.96554688 0.08570313 8.05609375 0.09765625 9.1796875 C0 12 0 12 -1 14 C-3.31 14 -5.62 14 -8 14 C-8 13.67 -8 13.34 -8 13 C-7.195625 12.87625 -6.39125 12.7525 -5.5625 12.625 C-4.716875 12.41875 -3.87125 12.2125 -3 12 C-2.67 11.34 -2.34 10.68 -2 10 C-3.98 10 -5.96 10 -8 10 C-9.39935013 7.20129973 -9.25265405 5.09501208 -9 2 C-6.6888271 -1.98035333 -4.06268971 -0.99310193 0 0 Z " fill="#D6D6D6" transform="translate(131,21)"/>
<path d="M0 0 C2.875 -0.125 2.875 -0.125 6 0 C8 2 8 2 8.1953125 4.8203125 C8.16050781 6.45613281 8.16050781 6.45613281 8.125 8.125 C8.10695313 9.22070312 8.08890625 10.31640625 8.0703125 11.4453125 C8.04710938 12.28835937 8.02390625 13.13140625 8 14 C6.52093108 14.02689216 5.04172517 14.04634621 3.5625 14.0625 C2.32693359 14.07990234 2.32693359 14.07990234 1.06640625 14.09765625 C-1 14 -1 14 -2 13 C-1.71269945 10.66055264 -1.38063221 8.3260857 -1 6 C1.31 6 3.62 6 6 6 C5.67 5.01 5.34 4.02 5 3 C3.35 2.67 1.7 2.34 0 2 C0 1.34 0 0.68 0 0 Z " fill="#DCDCDC" transform="translate(88,17)"/>
<path d="M0 0 C0.99 0 1.98 0 3 0 C3 0.99 3 1.98 3 3 C3.69867188 2.97679687 4.39734375 2.95359375 5.1171875 2.9296875 C6.02726563 2.91164063 6.93734375 2.89359375 7.875 2.875 C9.23238281 2.84019531 9.23238281 2.84019531 10.6171875 2.8046875 C13 3 13 3 15 5 C15.1953125 7.1640625 15.1953125 7.1640625 15.125 9.625 C15.10695312 10.44226562 15.08890625 11.25953125 15.0703125 12.1015625 C15.04710937 12.72804688 15.02390625 13.35453125 15 14 C14.34 14 13.68 14 13 14 C13 11.69 13 9.38 13 7 C9.7 6.67 6.4 6.34 3 6 C3 8.31 3 10.62 3 13 C3.99 13.33 4.98 13.66 6 14 C4.33388095 14.042721 2.66617115 14.04063832 1 14 C-0.5439778 12.4560222 -0.38023976 10.82390724 -0.625 8.6875 C-0.72039062 7.90761719 -0.81578125 7.12773437 -0.9140625 6.32421875 C-1.00032273 3.9912715 -0.68094412 2.22069091 0 0 Z " fill="#878787" transform="translate(138,17)"/>
<path d="M0 0 C1.32 0 2.64 0 4 0 C8.59225513 9.41002278 8.59225513 9.41002278 8 14 C7.34 13.67 6.68 13.34 6 13 C6 12.34 6 11.68 6 11 C3.69 11 1.38 11 -1 11 C-1.33 11.99 -1.66 12.98 -2 14 C-2.66 14 -3.32 14 -4 14 C-3.00956295 9.16371695 -2.04301154 4.52381127 0 0 Z " fill="#C9C9C9" transform="translate(170,17)"/>
<path d="M0 0 C2.31 0 4.62 0 7 0 C7 0.99 7 1.98 7 3 C6.01 3.33 5.02 3.66 4 4 C3.67 7.3 3.34 10.6 3 14 C1.68 14 0.36 14 -1 14 C-1 13.34 -1 12.68 -1 12 C-3.31 12 -5.62 12 -8 12 C-8.33 10.68 -8.66 9.36 -9 8 C-6.36 8 -3.72 8 -1 8 C-0.67 5.36 -0.34 2.72 0 0 Z " fill="#1A1A1A" transform="translate(79,17)"/>
<path d="M0 0 C0.94875 0.04125 1.8975 0.0825 2.875 0.125 C3.205 1.115 3.535 2.105 3.875 3.125 C2.740625 3.24875 1.60625 3.3725 0.4375 3.5 C-1.3259375 3.809375 -1.3259375 3.809375 -3.125 4.125 C-4.92423373 7.72346746 -4.50515148 11.68042438 -3.5 15.5 C-1.42002726 17.95814961 0.7779628 17.85569242 3.875 18.125 C3.875 18.785 3.875 19.445 3.875 20.125 C-1.34783205 20.55310099 -1.34783205 20.55310099 -4.125 20.125 C-7.35874538 16.68262588 -7.96240904 12.75884242 -8.125 8.125 C-4.98466258 0.1993865 -4.98466258 0.1993865 0 0 Z " fill="#E0E0E0" transform="translate(19.125,10.875)"/>
<path d="M0 0 C5.4679803 -0.36453202 5.4679803 -0.36453202 7.6875 1.15625 C9.51962482 3.72994915 9.29770208 5.56510786 9.1875 8.6875 C9.16042969 9.68136719 9.13335937 10.67523438 9.10546875 11.69921875 C9.07066406 12.45847656 9.03585938 13.21773437 9 14 C6.69 13.67 4.38 13.34 2 13 C1.67 11.35 1.34 9.7 1 8 C2.65 7.67 4.3 7.34 6 7 C6 5.35 6 3.7 6 2 C4.02 2 2.04 2 0 2 C0 1.34 0 0.68 0 0 Z " fill="#CECECE" transform="translate(46,17)"/>
<path d="M0 0 C1.859375 0.1953125 1.859375 0.1953125 4 1 C5.265625 3.1796875 5.265625 3.1796875 6.25 5.875 C6.58515625 6.75929688 6.9203125 7.64359375 7.265625 8.5546875 C8 11 8 11 8 14 C7.34 14 6.68 14 6 14 C5.67 13.34 5.34 12.68 5 12 C2.47266765 11.34444881 2.47266765 11.34444881 0 11 C0 10.34 0 9.68 0 9 C1.32 9 2.64 9 4 9 C3.34 7.35 2.68 5.7 2 4 C-0.30119506 7.55639236 -1.77472971 10.94718288 -3 15 C-3.66 15 -4.32 15 -5 15 C-4.43174347 9.45949887 -2.37113483 4.96284034 0 0 Z " fill="#E1E1E1" transform="translate(197,17)"/>
<path d="M0 0 C3.3 0.33 6.6 0.66 10 1 C10 3.31 10 5.62 10 8 C6.7 7.67 3.4 7.34 0 7 C0 4.69 0 2.38 0 0 Z " fill="#CBCBCB" transform="translate(141,23)"/>
<path d="M0 0 C1.65 0 3.3 0 5 0 C7.14762184 3.22143276 7.561068 4.2595467 7 8 C5.1875 9.8125 5.1875 9.8125 3 11 C2.01 11 1.02 11 0 11 C0 7.37 0 3.74 0 0 Z " fill="#080808" transform="translate(107,19)"/>
<path d="M0 0 C3 1 3 1 3.94921875 2.84765625 C4.6328125 4.8984375 5.31640625 6.94921875 6 9 C7.32 6.03 8.64 3.06 10 0 C10.66 0 11.32 0 12 0 C11.00956295 4.83628305 10.04301154 9.47618873 8 14 C6.140625 13.83984375 6.140625 13.83984375 4 13 C2.734375 10.56640625 2.734375 10.56640625 1.75 7.5625 C1.41484375 6.57378906 1.0796875 5.58507812 0.734375 4.56640625 C0 2 0 2 0 0 Z " fill="#DBDBDB" transform="translate(179,17)"/>
<path d="M0 0 C1.67542976 0.28604898 3.34385343 0.61781233 5 1 C5 3.64 5 6.28 5 9 C3.34385343 9.38218767 1.67542976 9.71395102 0 10 C-1 9 -1 9 -1.1328125 7.1875 C-1.13023438 6.465625 -1.12765625 5.74375 -1.125 5 C-1.12757812 4.278125 -1.13015625 3.55625 -1.1328125 2.8125 C-1 1 -1 1 0 0 Z " fill="#111111" transform="translate(26,19)"/>
<path d="M0 0 C0.66 0.33 1.32 0.66 2 1 C1.34 2.32 0.68 3.64 0 5 C1.98 5 3.96 5 6 5 C6 5.33 6 5.66 6 6 C4.02 6 2.04 6 0 6 C0.33 7.65 0.66 9.3 1 11 C3.31 11 5.62 11 8 11 C8 11.66 8 12.32 8 13 C6.72125 13.061875 5.4425 13.12375 4.125 13.1875 C3.40570313 13.22230469 2.68640625 13.25710937 1.9453125 13.29296875 C1.30335937 13.19628906 0.66140625 13.09960938 0 13 C-2.71232939 8.93150591 -2.30699887 6.83523216 -2 2 C-1.34 1.34 -0.68 0.68 0 0 Z " fill="#EDEDED" transform="translate(70,18)"/>
<path d="M0 0 C2.0625 0.4375 2.0625 0.4375 4 1 C4 3.64 4 6.28 4 9 C2.0625 9.5625 2.0625 9.5625 0 10 C-1 9 -1 9 -1.1328125 7.1875 C-1.13023438 6.465625 -1.12765625 5.74375 -1.125 5 C-1.12757812 4.278125 -1.13015625 3.55625 -1.1328125 2.8125 C-1 1 -1 1 0 0 Z " fill="#0D0D0D" transform="translate(60,19)"/>
<path d="M0 0 C0.66 0 1.32 0 2 0 C2 6.27 2 12.54 2 19 C2.66 19 3.32 19 4 19 C4 19.66 4 20.32 4 21 C2.68 21 1.36 21 0 21 C0 14.07 0 7.14 0 0 Z " fill="#E8E8E8" transform="translate(35,10)"/>
<path d="M0 0 C0.99 0 1.98 0 3 0 C3 4.95 3 9.9 3 15 C2.01 15 1.02 15 0 15 C0 10.05 0 5.1 0 0 Z " fill="#A2A2A2" transform="translate(155,16)"/>
<path d="M0 0 C1.32 0 2.64 0 4 0 C8.59225513 9.41002278 8.59225513 9.41002278 8 14 C7.34 13.67 6.68 13.34 6 13 C6 12.34 6 11.68 6 11 C4.35 11 2.7 11 1 11 C2.32 10.67 3.64 10.34 5 10 C4.67 9.401875 4.34 8.80375 4 8.1875 C3 6 3 6 3 3 C2.01 3.33 1.02 3.66 0 4 C0 2.68 0 1.36 0 0 Z " fill="#E4E4E4" transform="translate(170,17)"/>
<path d="M0 0 C0.33 0 0.66 0 1 0 C1 3.96 1 7.92 1 12 C4.70992273 10.87773692 4.70992273 10.87773692 8 9 C9.0615942 5.41136476 9.0615942 5.41136476 9 2 C9.66 2 10.32 2 11 2 C11.19966912 5.46093134 11.32761013 8.2014503 10 11.4375 C6.81039012 13.92938272 3.96543085 13.26002825 0 13 C0 8.71 0 4.42 0 0 Z " fill="#E3E3E3" transform="translate(105,18)"/>
<path d="M0 0 C2.875 -0.125 2.875 -0.125 6 0 C8 2 8 2 8.1953125 4.8203125 C8.16050781 6.45613281 8.16050781 6.45613281 8.125 8.125 C8.10695313 9.22070312 8.08890625 10.31640625 8.0703125 11.4453125 C8.04710938 12.28835937 8.02390625 13.13140625 8 14 C7.34 14 6.68 14 6 14 C4.95550089 10.86650268 5.06576355 10.01031744 6 7 C5.01 6.67 4.02 6.34 3 6 C3.99 6 4.98 6 6 6 C5.67 5.01 5.34 4.02 5 3 C3.35 2.67 1.7 2.34 0 2 C0 1.34 0 0.68 0 0 Z " fill="#E8E8E8" transform="translate(88,17)"/>
<path d="M0 0 C1.98 0 3.96 0 6 0 C6 0.99 6 1.98 6 3 C5.01 3.33 4.02 3.66 3 4 C2.67 7.3 2.34 10.6 2 14 C1.34 14 0.68 14 0 14 C0 9.38 0 4.76 0 0 Z " fill="#E0E0E0" transform="translate(80,17)"/>
<path d="M0 0 C0.94875 0.04125 1.8975 0.0825 2.875 0.125 C3.205 1.115 3.535 2.105 3.875 3.125 C2.8025 3.125 1.73 3.125 0.625 3.125 C-3.11141311 3.70186175 -3.11141311 3.70186175 -4.48046875 5.97265625 C-5.46940343 7.99693771 -6.3494757 10.01037164 -7.125 12.125 C-8.16096041 8.91282744 -8.20084301 8.3055786 -6.8125 5 C-3.97094835 0.15883793 -3.97094835 0.15883793 0 0 Z " fill="#C7C7C7" transform="translate(19.125,10.875)"/>
<path d="M0 0 C0.33 0 0.66 0 1 0 C1.33 1.98 1.66 3.96 2 6 C3.175625 6.1546875 3.175625 6.1546875 4.375 6.3125 C7 7 7 7 9 10 C9.125 13.1875 9.125 13.1875 9 16 C8.01 16 7.02 16 6 16 C5.67 13.69 5.34 11.38 5 9 C3.35 8.67 1.7 8.34 0 8 C0 5.36 0 2.72 0 0 Z " fill="#C4C4C4" transform="translate(58,11)"/>
<path d="M0 0 C1.32 0 2.64 0 4 0 C4 2.31 4 4.62 4 7 C2.35 7 0.7 7 -1 7 C-1.04254356 5.00045254 -1.04080783 2.99958364 -1 1 C-0.67 0.67 -0.34 0.34 0 0 Z " fill="#0D0D0D" transform="translate(125,22)"/>
<path d="M0 0 C3 1 3 1 4.16796875 2.99609375 C4.50441406 3.80175781 4.84085938 4.60742188 5.1875 5.4375 C5.53167969 6.24058594 5.87585938 7.04367188 6.23046875 7.87109375 C7 10 7 10 7 12 C6.01 12.33 5.02 12.66 4 13 C3.32942113 11.2097939 2.6636531 9.41778511 2 7.625 C1.62875 6.62726562 1.2575 5.62953125 0.875 4.6015625 C0 2 0 2 0 0 Z " fill="#D5D5D5" transform="translate(179,17)"/>
<path d="M0 0 C1.98 0 3.96 0 6 0 C5.690625 0.598125 5.38125 1.19625 5.0625 1.8125 C3.89790296 4.08956772 3.89790296 4.08956772 3 7 C2.01 7 1.02 7 0 7 C0 4.69 0 2.38 0 0 Z " fill="#090909" transform="translate(141,23)"/>
<path d="M0 0 C0.33 0.99 0.66 1.98 1 3 C1.99 3.33 2.98 3.66 4 4 C3.01 4 2.02 4 1 4 C1 6.64 1 9.28 1 12 C2.32 12.33 3.64 12.66 5 13 C3.33388095 13.042721 1.66617115 13.04063832 0 13 C-1.58272601 11.41727399 -1.34735747 9.61965997 -1.5625 7.4375 C-1.64628906 6.61121094 -1.73007813 5.78492188 -1.81640625 4.93359375 C-1.87699219 4.29550781 -1.93757812 3.65742188 -2 3 C-1.34 3 -0.68 3 0 3 C0 2.01 0 1.02 0 0 Z " fill="#D3D3D3" transform="translate(139,18)"/>
<path d="M0 0 C0.99 0.33 1.98 0.66 3 1 C2.938125 2.258125 2.87625 3.51625 2.8125 4.8125 C2.76367078 8.16958979 2.76367078 8.16958979 4.5 11 C4.995 11.33 5.49 11.66 6 12 C1.125 11.125 1.125 11.125 0 10 C-0.07205511 8.31391034 -0.08386068 6.62499341 -0.0625 4.9375 C-0.05347656 4.01839844 -0.04445313 3.09929688 -0.03515625 2.15234375 C-0.02355469 1.44207031 -0.01195313 0.73179688 0 0 Z " fill="#E7E7E7" transform="translate(23,19)"/>
<path d="M0 0 C0.99 0.33 1.98 0.66 3 1 C2.52269162 2.4589426 2.04308958 3.91713496 1.5625 5.375 C1.29566406 6.18710937 1.02882812 6.99921875 0.75390625 7.8359375 C0 10 0 10 -1 12 C-1.66 12 -2.32 12 -3 12 C-2.40075776 7.80530429 -1.42500059 3.99000166 0 0 Z " fill="#C4C4C4" transform="translate(195,20)"/>
<path d="M0 0 C1.32 0 2.64 0 4 0 C3.67 1.65 3.34 3.3 3 5 C1.35 5 -0.3 5 -2 5 C-1.125 1.125 -1.125 1.125 0 0 Z " fill="#313131" transform="translate(90,24)"/>
<path d="M0 0 C1.4540625 0.0309375 1.4540625 0.0309375 2.9375 0.0625 C0.9575 1.0525 0.9575 1.0525 -1.0625 2.0625 C-1.0625 3.3825 -1.0625 4.7025 -1.0625 6.0625 C-0.4025 6.7225 0.2575 7.3825 0.9375 8.0625 C-0.7125 7.7325 -2.3625 7.4025 -4.0625 7.0625 C-4.10504356 5.06295254 -4.10330783 3.06208364 -4.0625 1.0625 C-3.0625 0.0625 -3.0625 0.0625 0 0 Z " fill="#EBEBEB" transform="translate(49.0625,22.9375)"/>
<path d="M0 0 C1.32 0 2.64 0 4 0 C3.67 1.65 3.34 3.3 3 5 C1.68 5 0.36 5 -1 5 C-0.67 3.35 -0.34 1.7 0 0 Z " fill="#1F1F1F" transform="translate(48,24)"/>
<path d="M0 0 C0.66 0.33 1.32 0.66 2 1 C2.625 3.5625 2.625 3.5625 3 6 C1.68 6 0.36 6 -1 6 C-1 6.66 -1 7.32 -1 8 C-1.66 8 -2.32 8 -3 8 C-2.690625 7.236875 -2.38125 6.47375 -2.0625 5.6875 C-1.32106407 3.81210323 -0.63771783 1.91315348 0 0 Z " fill="#303030" transform="translate(198,20)"/>
<path d="M0 0 C1.65 0.33 3.3 0.66 5 1 C5 1.99 5 2.98 5 4 C3.02 4 1.04 4 -1 4 C-0.67 2.68 -0.34 1.36 0 0 Z " fill="#2B2B2B" transform="translate(71,19)"/>
<path d="M0 0 C1.32 0 2.64 0 4 0 C4.66 1.98 5.32 3.96 6 6 C5.01 6 4.02 6 3 6 C3 5.01 3 4.02 3 3 C2.01 3.33 1.02 3.66 0 4 C0 2.68 0 1.36 0 0 Z " fill="#D4D4D4" transform="translate(170,17)"/>
<path d="M0 0 C0.33 0.66 0.66 1.32 1 2 C3.31 2 5.62 2 8 2 C8 2.66 8 3.32 8 4 C5.36 4 2.72 4 0 4 C0 2.68 0 1.36 0 0 Z " fill="#D6D6D6" transform="translate(70,27)"/>
<path d="M0 0 C0.33 0 0.66 0 1 0 C1.09765625 6.15234375 1.09765625 6.15234375 1 8 C0 9 0 9 -2.5625 9.0625 C-3.366875 9.041875 -4.17125 9.02125 -5 9 C-4.01 8.67 -3.02 8.34 -2 8 C-1.19787372 6.12612784 -1.19787372 6.12612784 -0.8125 3.9375 C-0.65394531 3.20402344 -0.49539062 2.47054688 -0.33203125 1.71484375 C-0.22246094 1.14894531 -0.11289063 0.58304688 0 0 Z " fill="#E9E9E9" transform="translate(65,22)"/>
<path d="M0 0 C0.33 0 0.66 0 1 0 C1.33 2.64 1.66 5.28 2 8 C1.01 8.495 1.01 8.495 0 9 C-1.36623674 6.26752652 -1.128426 4.01801098 -1 1 C-0.67 0.67 -0.34 0.34 0 0 Z " fill="#F0F0F0" transform="translate(13,19)"/>
<path d="M0 0 C0.66 0 1.32 0 2 0 C2.33 1.98 2.66 3.96 3 6 C1.68 6 0.36 6 -1 6 C-0.67 4.02 -0.34 2.04 0 0 Z " fill="#232323" transform="translate(171,20)"/>
<path d="M0 0 C1.32 0 2.64 0 4 0 C3.67 1.32 3.34 2.64 3 4 C1.68 3.67 0.36 3.34 -1 3 C-0.67 2.01 -0.34 1.02 0 0 Z " fill="#171717" transform="translate(147,26)"/>
</svg>
